<svg width="16" height="10" viewBox="0 0 16 10" fill="none" xmlns="http://www.w3.org/2000/svg">
<path d="M10.2243 1.04533H5.9642V8.73042H10.2243V1.04533Z" fill="#FF5F00"/>
<path d="M6.23472 4.88951C6.23394 4.14928 6.40095 3.41857 6.72313 2.75271C7.0453 2.08686 7.51419 1.50332 8.09428 1.04629C7.37603 0.479677 6.51347 0.127335 5.60517 0.0295318C4.69688 -0.0682714 3.77949 0.0924102 2.95786 0.493212C2.13624 0.894014 1.44352 1.51877 0.958883 2.29607C0.474245 3.07336 0.217239 3.97185 0.217239 4.88883C0.217239 5.80582 0.474245 6.7043 0.958883 7.4816C1.44352 8.2589 2.13624 8.88365 2.95786 9.28445C3.77949 9.68525 4.69688 9.84593 5.60517 9.74813C6.51347 9.65033 7.37603 9.29799 8.09428 8.73138C7.51437 8.27448 7.04559 7.69116 6.72342 7.02556C6.40126 6.35996 6.23414 5.62952 6.23472 4.88951Z" fill="#EB001B"/>
<path d="M15.9719 4.88842C15.9719 5.80548 15.7149 6.70402 15.2301 7.48134C14.7454 8.25867 14.0526 8.88341 13.2309 9.28416C12.4091 9.6849 11.4917 9.84548 10.5833 9.74754C9.67496 9.64959 8.81239 9.29708 8.09419 8.73029C8.67387 8.27299 9.14252 7.68951 9.46477 7.02387C9.78702 6.35823 9.95446 5.62782 9.95446 4.88775C9.95446 4.14767 9.78702 3.41726 9.46477 2.75162C9.14252 2.08598 8.67387 1.5025 8.09419 1.0452C8.81239 0.478413 9.67496 0.1259 10.5833 0.0279562C11.4917 -0.0699874 12.4091 0.0905908 13.2309 0.491336C14.0526 0.892081 14.7454 1.51682 15.2301 2.29415C15.7149 3.07147 15.9719 3.97002 15.9719 4.88707V4.88842Z" fill="#F79E1B"/>
<path d="M15.5067 7.91581V7.75834H15.5703V7.72575H15.4093V7.75834H15.4783V7.91581H15.5067ZM15.8191 7.91581V7.72575H15.7704L15.7136 7.86151L15.6568 7.72575H15.6136V7.91581H15.6487V7.77327L15.7015 7.89681H15.738L15.7907 7.77327V7.91717L15.8191 7.91581Z" fill="#F79E1B"/>
</svg>
