<svg width="27" height="36" viewBox="0 0 27 36" fill="none" xmlns="http://www.w3.org/2000/svg">
<path d="M25.4995 17.9976C22.9133 11.2323 13.7052 10.8675 15.929 1.03476C16.0937 0.305175 15.3195 -0.258593 14.6935 0.12278C8.71398 3.6712 4.41464 10.7846 8.02213 20.1034C8.31864 20.8661 7.42912 21.5791 6.78669 21.0817C3.80516 18.81 3.49218 15.5435 3.75574 13.2055C3.85458 12.3433 2.73444 11.9288 2.25674 12.6418C1.13661 14.3662 0 17.1519 0 21.347C0.625957 30.6326 8.41747 33.4846 11.2178 33.8494C15.2206 34.3634 19.5529 33.6173 22.6662 30.7487C26.0925 27.5485 27.3444 22.4414 25.4995 17.9976ZM10.213 26.338C12.585 25.7577 13.804 24.0332 14.1334 22.5077C14.677 20.1366 12.5521 17.8152 13.9852 14.0678C14.5288 17.1685 19.3717 19.1085 19.3717 22.4911C19.5035 26.6862 14.99 30.2844 10.213 26.338Z" fill="url(#paint0_linear)"/>
<defs>
<linearGradient id="paint0_linear" x1="13.175" y1="0" x2="13.175" y2="34" gradientUnits="userSpaceOnUse">
<stop stop-color="#FF2B2B"/>
<stop offset="1" stop-color="#FFAA2B"/>
</linearGradient>
</defs>
</svg>
