<svg width="209" height="39" viewBox="0 0 209 39" fill="none" xmlns="http://www.w3.org/2000/svg">
<path fill-rule="evenodd" clip-rule="evenodd" d="M72.497 2.82992C71.7116 2.83379 70.9262 2.83379 70.3459 2.83379C69.8584 2.83379 69.3825 2.9073 68.926 3.04271C67.7421 3.38705 66.6897 4.14151 65.9352 5.10102C65.1769 6.05666 64.7165 7.22122 64.7165 8.38579C64.7165 8.7843 64.7707 9.1828 64.8829 9.57357C65.2582 10.8542 65.9082 11.922 66.7787 12.6881C67.6221 13.4271 68.6784 13.8836 69.901 13.9804L79.0627 13.9997C79.5734 14.0113 79.9255 13.6592 80.0919 13.2027C80.1576 13.017 80.1925 12.8119 80.1963 12.6069C80.2041 12.4018 80.1731 12.1967 80.1112 12.0072C79.9526 11.5351 79.5773 11.156 78.9505 11.1444C77.1128 11.1134 75.422 11.1212 73.681 11.1328C72.795 11.1366 71.8974 11.1405 70.9611 11.1405H70.9533C70.7405 11.1328 70.5393 11.1096 70.3498 11.067C69.634 10.92 69.073 10.564 68.6938 10.092C68.3147 9.61613 68.1212 9.02417 68.1444 8.409C68.1522 8.26585 68.1676 8.11883 68.1986 7.97181C68.3224 7.32182 68.6977 6.72599 69.4173 6.31975C70.0248 5.97541 70.8759 5.76648 72.0289 5.77035L77.7008 5.78196C77.7318 5.77809 77.7666 5.77422 77.8014 5.77422C77.9833 5.77422 78.1496 5.84386 78.2812 5.95993C78.405 6.076 78.494 6.23463 78.5249 6.40874C78.5288 6.44743 78.5327 6.48612 78.5327 6.52481C78.5327 6.72212 78.4553 6.90397 78.3315 7.03938C78.2038 7.1748 78.0297 7.26378 77.8324 7.27152L71.3325 7.27539L69.6185 9.44976L76.5556 9.47298C78.8809 9.48072 79.4535 9.05513 80.0222 8.62954L80.088 8.57924C80.8076 7.78997 81.1172 6.93105 81.1133 6.1263C81.1094 5.68137 81.0088 5.24804 80.8231 4.8534C80.6413 4.45876 80.3782 4.09895 80.0493 3.79717C79.3993 3.20908 78.4979 2.83766 77.461 2.8454C75.7973 2.81444 74.1491 2.82218 72.497 2.82992ZM84.3748 13.9726C84.5567 13.9726 84.7231 13.8991 84.8469 13.7869C84.9629 13.6786 85.0364 13.5315 85.0364 13.3691V6.04505L90.0739 13.2839C90.2093 13.4774 90.3989 13.6554 90.6117 13.783C90.8051 13.8991 91.0102 13.9726 91.2036 13.9726H94.0628C94.2485 13.9726 94.4149 13.903 94.531 13.7946C94.6509 13.6824 94.7205 13.5315 94.7205 13.3691V3.43735C94.7205 3.27098 94.6509 3.12009 94.5387 3.01176C94.4188 2.90343 94.2524 2.83766 94.0628 2.83766H92.581C92.3953 2.83766 92.2289 2.9073 92.1051 3.01563C91.9929 3.12009 91.9194 3.26325 91.9194 3.42187V11.3301L86.4409 3.52634C86.3093 3.34063 86.1198 3.15491 85.9108 3.02337C85.7329 2.91117 85.5472 2.83766 85.3808 2.83766H82.8427C82.6609 2.83766 82.5023 2.9073 82.3862 3.01563C82.2701 3.12396 82.1966 3.27485 82.1966 3.43735V13.3691C82.1966 13.5315 82.2701 13.6786 82.3901 13.7869C82.51 13.8991 82.6764 13.9726 82.8582 13.9726H84.3748ZM56.611 13.9726C56.7967 13.9726 56.9901 13.8991 57.1526 13.7908C57.3229 13.6747 57.4583 13.5161 57.5279 13.3458L60.8552 4.75668V13.3536C60.8552 13.5238 60.9249 13.6786 61.041 13.7908C61.1609 13.903 61.3273 13.9726 61.513 13.9726H63.0683C63.254 13.9726 63.4204 13.903 63.5403 13.7908C63.6564 13.6786 63.726 13.5238 63.726 13.3536V3.4567C63.726 3.28646 63.6564 3.1317 63.5442 3.0195C63.4281 2.9073 63.2656 2.83766 63.0838 2.83766H59.5746C59.3812 2.83766 59.1916 2.91117 59.033 3.02337C58.8666 3.14331 58.735 3.30967 58.6731 3.48765C57.849 5.87868 56.8779 8.30067 55.9919 10.6801C55.1059 8.30067 54.1348 5.87868 53.3107 3.48765C53.2488 3.30967 53.1173 3.14331 52.9509 3.02337C52.7923 2.91117 52.6027 2.83766 52.4131 2.83766H48.9001C48.7221 2.83766 48.5596 2.9073 48.4435 3.0195C48.3275 3.1317 48.2578 3.28646 48.2578 3.4567V13.3536C48.2578 13.5238 48.3275 13.6786 48.4474 13.7908C48.5635 13.903 48.7298 13.9726 48.9194 13.9726H50.4709C50.6605 13.9726 50.8268 13.903 50.9429 13.7908C51.059 13.6786 51.1325 13.5238 51.1325 13.3536V4.75668L54.4559 13.3458C54.5256 13.5161 54.6649 13.6747 54.8312 13.7908C54.9976 13.8991 55.1872 13.9726 55.3768 13.9726H56.611Z" fill="#151616"/>
<path fill-rule="evenodd" clip-rule="evenodd" d="M22.9122 0.0094488C21.9527 0.0133178 20.9893 0.0171868 20.2349 0.0171868C18.7143 0.0171868 17.3022 0.512418 16.1531 1.34812C15.0852 2.12192 14.2457 3.18976 13.7504 4.43171L13.6847 4.62516L13.7504 4.61355C15.4876 4.54391 16.5168 5.39509 17.1706 5.94061C17.3641 6.09924 17.5188 6.23079 17.6349 6.28882C17.8167 5.54984 18.2694 4.88438 19.1012 4.41623C19.848 3.99451 20.9003 3.73529 22.328 3.73916L29.3812 3.75463C29.4005 3.75076 29.4198 3.75076 29.4392 3.74689C29.4585 3.74689 29.4817 3.74689 29.5011 3.74689C29.741 3.74689 29.9615 3.84749 30.1201 4.00999C30.2788 4.17248 30.3755 4.39302 30.3755 4.64063C30.3755 4.87664 30.2826 5.0933 30.1356 5.2558C29.9925 5.41056 29.799 5.51115 29.5823 5.5305L29.5746 5.53824L21.4459 5.53437L19.256 8.31617L27.9574 8.34326C30.8591 8.35486 31.5749 7.82094 32.2868 7.28702L32.3758 7.22512C33.2772 6.23466 33.6641 5.15521 33.6564 4.1454C33.6525 3.5844 33.5248 3.04274 33.2966 2.54751C33.0683 2.05228 32.7356 1.60347 32.3216 1.22431C31.5091 0.485335 30.3794 0.0210558 29.0832 0.0287938H29.0794C27.0172 -0.00989615 24.9666 -0.00215817 22.9122 0.0094488ZM13.7659 5.48794L4.53836 5.55371L4.51128 5.54598L4.4958 5.54984C4.25205 5.54984 4.03539 5.44538 3.87676 5.28288C3.71813 5.11652 3.62141 4.89212 3.62141 4.6445C3.62141 4.39302 3.71813 4.16861 3.87676 4.00225C4.03539 3.83975 4.25205 3.73529 4.4958 3.73529L4.56544 3.73916L12.9805 3.71981C13.4061 2.87637 14.0638 1.9749 14.8454 1.23205C15.3445 0.760033 15.8938 0.34992 16.4703 0.0597457L3.95801 0.0674837C3.02558 0.148733 2.09703 0.566584 1.37739 1.22818C0.704189 1.84335 0.212827 2.67132 0.0696745 3.63856C0.0232466 3.95195 3.26231e-05 4.24599 3.26231e-05 4.52069C-0.00383637 5.62336 0.336635 6.4784 0.913115 7.09744C1.48959 7.71261 2.30982 8.09177 3.26159 8.23493C3.5479 8.27748 3.84194 8.3007 4.13985 8.3007L13.3867 8.33165L13.41 8.45159C13.7311 9.94115 14.5358 11.2643 15.6462 12.2393C16.7412 13.1988 18.1417 13.8256 19.6816 13.9494H19.6971L19.7628 13.9688H28.4371L31.0023 10.3513L21.0048 10.3435C20.1304 10.4248 19.4881 10.2391 18.9774 9.87151C18.4745 9.50395 18.1069 8.9623 17.7858 8.32391V8.32004C17.4182 7.50369 16.865 6.82661 16.1724 6.33912C15.4915 5.85936 14.6751 5.56145 13.7659 5.48794ZM3.56337 13.9494H4.53062C7.08416 13.9456 14.7525 13.9726 16.3194 13.961C15.5998 13.52 15.0233 13.0944 14.5165 12.5914C13.9439 12.0149 13.468 11.3417 12.9921 10.4286L0.758355 10.359L3.56337 13.9494ZM29.6404 13.9417L40.3652 13.9726C43.0851 13.9069 45.0235 12.5102 46.0875 10.6221C46.6253 9.67032 46.9425 8.59474 47.0276 7.49982C47.1127 6.40489 46.9657 5.29449 46.575 4.27695C45.8089 2.28055 44.1104 0.636225 41.3866 0.15647H41.3712L41.3557 0.148733C41.081 0.0365318 35.734 0.0558767 33.0606 0.0674837H32.3061C32.8284 0.377003 33.3701 0.825806 33.7957 1.44484C34.2019 2.04454 34.496 2.79512 34.5424 3.73142H40.1408C41.7155 3.73142 42.7292 4.57099 43.1741 5.65818C43.3482 6.0799 43.4333 6.54031 43.4333 7.00459C43.4333 7.465 43.3443 7.92541 43.1702 8.35486C42.7176 9.4614 41.6807 10.3319 40.0596 10.3358L32.1436 10.359L29.6404 13.9417Z" fill="#CC405E"/>
<path d="M1.274 26.76H4.522C5.11933 26.76 5.63733 26.8767 6.076 27.11C6.524 27.334 6.86933 27.6513 7.112 28.062C7.35467 28.4633 7.476 28.9207 7.476 29.434C7.476 29.9567 7.35467 30.4233 7.112 30.834C6.86933 31.2447 6.524 31.5667 6.076 31.8C5.63733 32.024 5.11933 32.136 4.522 32.136H2.366V36H1.274V26.76ZM4.494 31.156C5.082 31.156 5.53467 31.002 5.852 30.694C6.17867 30.3767 6.342 29.9613 6.342 29.448C6.342 28.944 6.17867 28.5333 5.852 28.216C5.53467 27.8987 5.082 27.74 4.494 27.74H2.366V31.156H4.494ZM11.655 29.028C12.4577 29.028 13.1017 29.266 13.587 29.742C14.0723 30.218 14.315 30.904 14.315 31.8V36H13.307V35.118C13.055 35.454 12.733 35.7107 12.341 35.888C11.949 36.0653 11.5057 36.154 11.011 36.154C10.311 36.154 9.737 35.9813 9.289 35.636C8.85033 35.2907 8.631 34.824 8.631 34.236C8.631 33.6573 8.855 33.1953 9.303 32.85C9.751 32.5047 10.3437 32.332 11.081 32.332H13.237V31.744C13.237 31.184 13.0877 30.7593 12.789 30.47C12.4997 30.1713 12.0983 30.022 11.585 30.022C11.1743 30.022 10.8103 30.1153 10.493 30.302C10.1757 30.4793 9.877 30.75 9.597 31.114L8.883 30.526C9.191 30.022 9.58767 29.6487 10.073 29.406C10.5583 29.154 11.0857 29.028 11.655 29.028ZM11.151 35.258C11.5243 35.258 11.8697 35.1787 12.187 35.02C12.5043 34.852 12.7563 34.6233 12.943 34.334C13.139 34.0447 13.237 33.7273 13.237 33.382V33.214H11.207C10.731 33.214 10.367 33.298 10.115 33.466C9.863 33.6247 9.737 33.8627 9.737 34.18C9.737 34.5253 9.87233 34.7913 10.143 34.978C10.4137 35.1647 10.7497 35.258 11.151 35.258ZM20.2135 32.36C20.5868 32.5093 20.8715 32.7333 21.0675 33.032C21.2728 33.3213 21.3755 33.6573 21.3755 34.04C21.3755 34.684 21.1375 35.1973 20.6615 35.58C20.1948 35.9627 19.5742 36.154 18.7995 36.154C18.2395 36.154 17.7402 36.042 17.3015 35.818C16.8628 35.5847 16.4895 35.258 16.1815 34.838L16.9095 34.194C17.1428 34.502 17.4088 34.74 17.7075 34.908C18.0062 35.076 18.3655 35.16 18.7855 35.16C19.2615 35.16 19.6255 35.0527 19.8775 34.838C20.1388 34.614 20.2695 34.3247 20.2695 33.97C20.2695 33.6433 20.1388 33.3773 19.8775 33.172C19.6255 32.9667 19.2615 32.864 18.7855 32.864H18.0435V31.912H18.7715C19.1635 31.912 19.4575 31.828 19.6535 31.66C19.8588 31.492 19.9615 31.2587 19.9615 30.96C19.9615 30.6707 19.8542 30.442 19.6395 30.274C19.4342 30.106 19.1355 30.022 18.7435 30.022C18.3608 30.022 18.0342 30.0967 17.7635 30.246C17.5022 30.386 17.2595 30.5913 17.0355 30.862L16.3075 30.218C16.5688 29.8633 16.9048 29.5787 17.3155 29.364C17.7355 29.14 18.2255 29.028 18.7855 29.028C19.4668 29.028 20.0082 29.196 20.4095 29.532C20.8202 29.8587 21.0255 30.3113 21.0255 30.89C21.0255 31.198 20.9555 31.478 20.8155 31.73C20.6848 31.982 20.4842 32.192 20.2135 32.36ZM27.0143 29.028C27.6583 29.028 28.237 29.1867 28.7503 29.504C29.2636 29.812 29.665 30.2367 29.9543 30.778C30.2436 31.3193 30.3883 31.9213 30.3883 32.584C30.3883 33.2467 30.239 33.8533 29.9403 34.404C29.651 34.9453 29.2496 35.3747 28.7363 35.692C28.223 36 27.649 36.154 27.0143 36.154C26.5103 36.154 26.0343 36.056 25.5863 35.86C25.1476 35.6547 24.7883 35.3747 24.5083 35.02V38.52H23.4303V29.182H24.4383V30.274C24.6996 29.882 25.059 29.5787 25.5163 29.364C25.983 29.14 26.4823 29.028 27.0143 29.028ZM26.8603 35.16C27.3176 35.16 27.7283 35.0527 28.0923 34.838C28.4656 34.614 28.755 34.306 28.9603 33.914C29.175 33.522 29.2823 33.0833 29.2823 32.598C29.2823 32.1127 29.175 31.674 28.9603 31.282C28.755 30.89 28.4656 30.582 28.0923 30.358C27.7283 30.134 27.3176 30.022 26.8603 30.022C26.4496 30.022 26.0623 30.1153 25.6983 30.302C25.3436 30.4887 25.0543 30.7733 24.8303 31.156C24.6063 31.5387 24.4943 32.0147 24.4943 32.584C24.4943 33.1533 24.6016 33.634 24.8163 34.026C25.0403 34.4087 25.3296 34.6933 25.6843 34.88C26.0483 35.0667 26.4403 35.16 26.8603 35.16ZM34.866 29.028C35.6687 29.028 36.3127 29.266 36.798 29.742C37.2833 30.218 37.526 30.904 37.526 31.8V36H36.518V35.118C36.266 35.454 35.944 35.7107 35.552 35.888C35.16 36.0653 34.7167 36.154 34.222 36.154C33.522 36.154 32.948 35.9813 32.5 35.636C32.0613 35.2907 31.842 34.824 31.842 34.236C31.842 33.6573 32.066 33.1953 32.514 32.85C32.962 32.5047 33.5547 32.332 34.292 32.332H36.448V31.744C36.448 31.184 36.2987 30.7593 36 30.47C35.7107 30.1713 35.3093 30.022 34.796 30.022C34.3853 30.022 34.0213 30.1153 33.704 30.302C33.3867 30.4793 33.088 30.75 32.808 31.114L32.094 30.526C32.402 30.022 32.7987 29.6487 33.284 29.406C33.7693 29.154 34.2967 29.028 34.866 29.028ZM34.362 35.258C34.7353 35.258 35.0807 35.1787 35.398 35.02C35.7153 34.852 35.9673 34.6233 36.154 34.334C36.35 34.0447 36.448 33.7273 36.448 33.382V33.214H34.418C33.942 33.214 33.578 33.298 33.326 33.466C33.074 33.6247 32.948 33.8627 32.948 34.18C32.948 34.5253 33.0833 34.7913 33.354 34.978C33.6247 35.1647 33.9607 35.258 34.362 35.258ZM43.2705 29.28C43.8865 29.28 44.4558 29.434 44.9785 29.742C45.5012 30.05 45.9118 30.47 46.2105 31.002C46.5185 31.5247 46.6725 32.094 46.6725 32.71C46.6725 33.3353 46.5138 33.914 46.1965 34.446C45.8792 34.9687 45.4498 35.384 44.9085 35.692C44.3672 35.9907 43.7698 36.14 43.1165 36.14C42.4258 36.14 41.8145 35.9813 41.2825 35.664C40.7505 35.3373 40.3352 34.8847 40.0365 34.306C39.7472 33.718 39.6025 33.0507 39.6025 32.304V31.114C39.6025 30.0687 39.7052 29.21 39.9105 28.538C40.1252 27.866 40.5358 27.306 41.1425 26.858C41.7585 26.41 42.6452 26.088 43.8025 25.892C44.9598 25.6867 45.7252 25.5047 46.0985 25.346V26.382C45.6692 26.5687 44.9458 26.7367 43.9285 26.886C42.9578 27.026 42.2345 27.2733 41.7585 27.628C41.2825 27.9733 40.9792 28.384 40.8485 28.86C40.7178 29.3267 40.6525 29.924 40.6525 30.652C40.9418 30.2227 41.3152 29.8867 41.7725 29.644C42.2392 29.4013 42.7385 29.28 43.2705 29.28ZM43.1305 35.146C43.5785 35.146 43.9892 35.0387 44.3625 34.824C44.7358 34.6093 45.0298 34.3153 45.2445 33.942C45.4592 33.5687 45.5665 33.158 45.5665 32.71C45.5665 32.262 45.4592 31.8513 45.2445 31.478C45.0298 31.1047 44.7358 30.8107 44.3625 30.596C43.9892 30.3813 43.5785 30.274 43.1305 30.274C42.6918 30.274 42.2858 30.3813 41.9125 30.596C41.5392 30.8107 41.2405 31.1047 41.0165 31.478C40.8018 31.8513 40.6945 32.262 40.6945 32.71C40.6945 33.1487 40.8018 33.5547 41.0165 33.928C41.2405 34.3013 41.5392 34.6 41.9125 34.824C42.2858 35.0387 42.6918 35.146 43.1305 35.146ZM51.7718 36.14C51.1184 36.14 50.5211 35.9813 49.9798 35.664C49.4384 35.3467 49.0091 34.9173 48.6918 34.376C48.3744 33.8253 48.2158 33.228 48.2158 32.584C48.2158 31.9307 48.3744 31.3333 48.6918 30.792C49.0091 30.2413 49.4384 29.812 49.9798 29.504C50.5304 29.1867 51.1324 29.028 51.7858 29.028C52.4391 29.028 53.0364 29.1867 53.5778 29.504C54.1284 29.8213 54.5624 30.2507 54.8798 30.792C55.1971 31.3333 55.3558 31.9307 55.3558 32.584C55.3558 33.228 55.1971 33.8253 54.8798 34.376C54.5624 34.9173 54.1284 35.3467 53.5778 35.664C53.0271 35.9813 52.4251 36.14 51.7718 36.14ZM51.7718 35.146C52.2291 35.146 52.6444 35.034 53.0178 34.81C53.4004 34.586 53.6991 34.2827 53.9138 33.9C54.1378 33.508 54.2498 33.074 54.2498 32.598C54.2498 32.1127 54.1424 31.674 53.9278 31.282C53.7131 30.89 53.4144 30.582 53.0318 30.358C52.6584 30.134 52.2431 30.022 51.7858 30.022C51.3191 30.022 50.8991 30.134 50.5258 30.358C50.1524 30.582 49.8584 30.89 49.6438 31.282C49.4291 31.674 49.3218 32.1127 49.3218 32.598C49.3218 33.074 49.4291 33.508 49.6438 33.9C49.8584 34.2827 50.1524 34.586 50.5258 34.81C50.8991 35.034 51.3144 35.146 51.7718 35.146ZM58.6673 30.148H56.3713V29.182H62.0273V30.148H59.7313V36H58.6673V30.148ZM63.6557 29.182H64.7337V36H63.6557V29.182ZM69.3957 36H68.0377L64.8737 32.304L67.7437 29.182H69.0877L66.1897 32.276L69.3957 36ZM73.3824 29.028C74.1851 29.028 74.8291 29.266 75.3144 29.742C75.7998 30.218 76.0424 30.904 76.0424 31.8V36H75.0344V35.118C74.7824 35.454 74.4604 35.7107 74.0684 35.888C73.6764 36.0653 73.2331 36.154 72.7384 36.154C72.0384 36.154 71.4644 35.9813 71.0164 35.636C70.5778 35.2907 70.3584 34.824 70.3584 34.236C70.3584 33.6573 70.5824 33.1953 71.0304 32.85C71.4784 32.5047 72.0711 32.332 72.8084 32.332H74.9644V31.744C74.9644 31.184 74.8151 30.7593 74.5164 30.47C74.2271 30.1713 73.8258 30.022 73.3124 30.022C72.9018 30.022 72.5378 30.1153 72.2204 30.302C71.9031 30.4793 71.6044 30.75 71.3244 31.114L70.6104 30.526C70.9184 30.022 71.3151 29.6487 71.8004 29.406C72.2858 29.154 72.8131 29.028 73.3824 29.028ZM72.8784 35.258C73.2518 35.258 73.5971 35.1787 73.9144 35.02C74.2318 34.852 74.4838 34.6233 74.6704 34.334C74.8664 34.0447 74.9644 33.7273 74.9644 33.382V33.214H72.9344C72.4584 33.214 72.0944 33.298 71.8424 33.466C71.5904 33.6247 71.4644 33.8627 71.4644 34.18C71.4644 34.5253 71.5998 34.7913 71.8704 34.978C72.1411 35.1647 72.4771 35.258 72.8784 35.258ZM88.9307 35.048V37.974H87.8527V36H82.4907V37.974H81.4127V35.048H82.1827C82.5001 34.7213 82.7241 34.2407 82.8547 33.606C82.9854 32.962 83.0601 32.1267 83.0787 31.1L83.1207 29.182H87.8247V35.048H88.9307ZM84.1007 31.114C84.0821 32.066 84.0027 32.8827 83.8627 33.564C83.7227 34.236 83.5407 34.7307 83.3167 35.048H86.7467V30.148H84.1427L84.1007 31.114ZM96.3945 29.028V36H95.3165V31.184L91.1585 36.154H90.7665V29.182H91.8445V34.012L96.0025 29.028H96.3945ZM102.377 32.36C102.75 32.5093 103.035 32.7333 103.231 33.032C103.436 33.3213 103.539 33.6573 103.539 34.04C103.539 34.684 103.301 35.1973 102.825 35.58C102.358 35.9627 101.737 36.154 100.963 36.154C100.403 36.154 99.9032 36.042 99.4645 35.818C99.0259 35.5847 98.6525 35.258 98.3445 34.838L99.0725 34.194C99.3059 34.502 99.5719 34.74 99.8705 34.908C100.169 35.076 100.529 35.16 100.949 35.16C101.425 35.16 101.789 35.0527 102.041 34.838C102.302 34.614 102.433 34.3247 102.433 33.97C102.433 33.6433 102.302 33.3773 102.041 33.172C101.789 32.9667 101.425 32.864 100.949 32.864H100.207V31.912H100.935C101.327 31.912 101.621 31.828 101.817 31.66C102.022 31.492 102.125 31.2587 102.125 30.96C102.125 30.6707 102.017 30.442 101.803 30.274C101.597 30.106 101.299 30.022 100.907 30.022C100.524 30.022 100.197 30.0967 99.9265 30.246C99.6652 30.386 99.4225 30.5913 99.1985 30.862L98.4705 30.218C98.7319 29.8633 99.0679 29.5787 99.4785 29.364C99.8985 29.14 100.389 29.028 100.949 29.028C101.63 29.028 102.171 29.196 102.573 29.532C102.983 29.8587 103.189 30.3113 103.189 30.89C103.189 31.198 103.119 31.478 102.979 31.73C102.848 31.982 102.647 32.192 102.377 32.36ZM108.043 29.028C108.846 29.028 109.49 29.266 109.975 29.742C110.461 30.218 110.703 30.904 110.703 31.8V36H109.695V35.118C109.443 35.454 109.121 35.7107 108.729 35.888C108.337 36.0653 107.894 36.154 107.399 36.154C106.699 36.154 106.125 35.9813 105.677 35.636C105.239 35.2907 105.019 34.824 105.019 34.236C105.019 33.6573 105.243 33.1953 105.691 32.85C106.139 32.5047 106.732 32.332 107.469 32.332H109.625V31.744C109.625 31.184 109.476 30.7593 109.177 30.47C108.888 30.1713 108.487 30.022 107.973 30.022C107.563 30.022 107.199 30.1153 106.881 30.302C106.564 30.4793 106.265 30.75 105.985 31.114L105.271 30.526C105.579 30.022 105.976 29.6487 106.461 29.406C106.947 29.154 107.474 29.028 108.043 29.028ZM107.539 35.258C107.913 35.258 108.258 35.1787 108.575 35.02C108.893 34.852 109.145 34.6233 109.331 34.334C109.527 34.0447 109.625 33.7273 109.625 33.382V33.214H107.595C107.119 33.214 106.755 33.298 106.503 33.466C106.251 33.6247 106.125 33.8627 106.125 34.18C106.125 34.5253 106.261 34.7913 106.531 34.978C106.802 35.1647 107.138 35.258 107.539 35.258ZM118.758 29.028V36H117.68V31.184L113.522 36.154H113.13V29.182H114.208V34.012L118.366 29.028H118.758ZM116.098 27.978C115.463 27.978 114.95 27.7773 114.558 27.376C114.175 26.9653 113.984 26.4287 113.984 25.766V25.332H114.894V25.738C114.894 26.1953 114.997 26.55 115.202 26.802C115.417 27.0447 115.715 27.166 116.098 27.166C116.49 27.166 116.789 27.0447 116.994 26.802C117.209 26.55 117.316 26.1953 117.316 25.738V25.332H118.226V25.766C118.226 26.4287 118.03 26.9653 117.638 27.376C117.255 27.7773 116.742 27.978 116.098 27.978ZM121.268 29.182H122.346V31.898H125.692V29.182H126.77V36H125.692V32.85H122.346V36H121.268V29.182ZM131.719 29.028C132.522 29.028 133.166 29.266 133.651 29.742C134.137 30.218 134.379 30.904 134.379 31.8V36H133.371V35.118C133.119 35.454 132.797 35.7107 132.405 35.888C132.013 36.0653 131.57 36.154 131.075 36.154C130.375 36.154 129.801 35.9813 129.353 35.636C128.915 35.2907 128.695 34.824 128.695 34.236C128.695 33.6573 128.919 33.1953 129.367 32.85C129.815 32.5047 130.408 32.332 131.145 32.332H133.301V31.744C133.301 31.184 133.152 30.7593 132.853 30.47C132.564 30.1713 132.163 30.022 131.649 30.022C131.239 30.022 130.875 30.1153 130.557 30.302C130.24 30.4793 129.941 30.75 129.661 31.114L128.947 30.526C129.255 30.022 129.652 29.6487 130.137 29.406C130.623 29.154 131.15 29.028 131.719 29.028ZM131.215 35.258C131.589 35.258 131.934 35.1787 132.251 35.02C132.569 34.852 132.821 34.6233 133.007 34.334C133.203 34.0447 133.301 33.7273 133.301 33.382V33.214H131.271C130.795 33.214 130.431 33.298 130.179 33.466C129.927 33.6247 129.801 33.8627 129.801 34.18C129.801 34.5253 129.937 34.7913 130.207 34.978C130.478 35.1647 130.814 35.258 131.215 35.258ZM143.95 36.154C143.296 36.154 142.694 35.9953 142.144 35.678C141.602 35.3607 141.173 34.9313 140.856 34.39C140.538 33.8393 140.38 33.2373 140.38 32.584C140.38 31.9307 140.538 31.3333 140.856 30.792C141.173 30.2507 141.602 29.8213 142.144 29.504C142.694 29.1867 143.296 29.028 143.95 29.028C144.547 29.028 145.088 29.1633 145.574 29.434C146.059 29.6953 146.456 30.0547 146.764 30.512L145.994 31.128C145.443 30.3907 144.766 30.022 143.964 30.022C143.497 30.022 143.072 30.1387 142.69 30.372C142.316 30.596 142.022 30.904 141.808 31.296C141.593 31.688 141.486 32.1173 141.486 32.584C141.486 33.06 141.593 33.494 141.808 33.886C142.022 34.278 142.316 34.5907 142.69 34.824C143.072 35.048 143.497 35.16 143.964 35.16C144.766 35.16 145.438 34.796 145.98 34.068L146.75 34.67C146.442 35.1273 146.045 35.4913 145.56 35.762C145.084 36.0233 144.547 36.154 143.95 36.154ZM151.17 29.028C151.973 29.028 152.617 29.266 153.102 29.742C153.588 30.218 153.83 30.904 153.83 31.8V36H152.822V35.118C152.57 35.454 152.248 35.7107 151.856 35.888C151.464 36.0653 151.021 36.154 150.526 36.154C149.826 36.154 149.252 35.9813 148.804 35.636C148.366 35.2907 148.146 34.824 148.146 34.236C148.146 33.6573 148.37 33.1953 148.818 32.85C149.266 32.5047 149.859 32.332 150.596 32.332H152.752V31.744C152.752 31.184 152.603 30.7593 152.304 30.47C152.015 30.1713 151.614 30.022 151.1 30.022C150.69 30.022 150.326 30.1153 150.008 30.302C149.691 30.4793 149.392 30.75 149.112 31.114L148.398 30.526C148.706 30.022 149.103 29.6487 149.588 29.406C150.074 29.154 150.601 29.028 151.17 29.028ZM150.666 35.258C151.04 35.258 151.385 35.1787 151.702 35.02C152.02 34.852 152.272 34.6233 152.458 34.334C152.654 34.0447 152.752 33.7273 152.752 33.382V33.214H150.722C150.246 33.214 149.882 33.298 149.63 33.466C149.378 33.6247 149.252 33.8627 149.252 34.18C149.252 34.5253 149.388 34.7913 149.658 34.978C149.929 35.1647 150.265 35.258 150.666 35.258ZM161.885 29.028V36H160.807V31.184L156.649 36.154H156.257V29.182H157.335V34.012L161.493 29.028H161.885ZM159.225 27.978C158.59 27.978 158.077 27.7773 157.685 27.376C157.302 26.9653 157.111 26.4287 157.111 25.766V25.332H158.021V25.738C158.021 26.1953 158.124 26.55 158.329 26.802C158.544 27.0447 158.842 27.166 159.225 27.166C159.617 27.166 159.916 27.0447 160.121 26.802C160.336 26.55 160.443 26.1953 160.443 25.738V25.332H161.353V25.766C161.353 26.4287 161.157 26.9653 160.765 27.376C160.382 27.7773 159.869 27.978 159.225 27.978ZM165.781 30.148H163.485V29.182H169.141V30.148H166.845V36H165.781V30.148ZM173.219 29.028C174.022 29.028 174.666 29.266 175.151 29.742C175.637 30.218 175.879 30.904 175.879 31.8V36H174.871V35.118C174.619 35.454 174.297 35.7107 173.905 35.888C173.513 36.0653 173.07 36.154 172.575 36.154C171.875 36.154 171.301 35.9813 170.853 35.636C170.415 35.2907 170.195 34.824 170.195 34.236C170.195 33.6573 170.419 33.1953 170.867 32.85C171.315 32.5047 171.908 32.332 172.645 32.332H174.801V31.744C174.801 31.184 174.652 30.7593 174.353 30.47C174.064 30.1713 173.663 30.022 173.149 30.022C172.739 30.022 172.375 30.1153 172.057 30.302C171.74 30.4793 171.441 30.75 171.161 31.114L170.447 30.526C170.755 30.022 171.152 29.6487 171.637 29.406C172.123 29.154 172.65 29.028 173.219 29.028ZM172.715 35.258C173.089 35.258 173.434 35.1787 173.751 35.02C174.069 34.852 174.321 34.6233 174.507 34.334C174.703 34.0447 174.801 33.7273 174.801 33.382V33.214H172.771C172.295 33.214 171.931 33.298 171.679 33.466C171.427 33.6247 171.301 33.8627 171.301 34.18C171.301 34.5253 171.437 34.7913 171.707 34.978C171.978 35.1647 172.314 35.258 172.715 35.258Z" fill="black"/>
</svg>
