<svg width="21" height="37" viewBox="0 0 21 37" fill="none" xmlns="http://www.w3.org/2000/svg">
<path d="M20.5982 2.75C20.8363 2.98809 20.9554 3.2619 20.9554 3.57143C20.9554 3.88095 20.8363 4.15476 20.5982 4.39286L6.5625 18.4286L20.5982 32.4643C20.8363 32.7024 20.9554 32.9762 20.9554 33.2857C20.9554 33.5952 20.8363 33.869 20.5982 34.1071L18.8125 35.8929C18.5744 36.131 18.3006 36.25 17.9911 36.25C17.6815 36.25 17.4077 36.131 17.1696 35.8929L0.526786 19.25C0.288691 19.0119 0.169643 18.7381 0.169643 18.4286C0.169643 18.119 0.288691 17.8452 0.526786 17.6071L17.1696 0.964283C17.4077 0.726187 17.6815 0.60714 17.9911 0.60714C18.3006 0.60714 18.5744 0.726187 18.8125 0.964283L20.5982 2.75Z" fill="black"/>
</svg>
