<svg width="9" height="14" viewBox="0 0 9 14" fill="none" xmlns="http://www.w3.org/2000/svg">
<path d="M8.04576 6.97768C8.13504 7.06696 8.17969 7.16964 8.17969 7.28571C8.17969 7.40179 8.13504 7.50446 8.04576 7.59375L1.80469 13.8348C1.7154 13.9241 1.61272 13.9687 1.49665 13.9687C1.38058 13.9687 1.2779 13.9241 1.18862 13.8348L0.518973 13.1652C0.429688 13.0759 0.385045 12.9732 0.385045 12.8571C0.385045 12.7411 0.429688 12.6384 0.518973 12.5491L5.78237 7.28571L0.518973 2.02232C0.429688 1.93304 0.385045 1.83036 0.385045 1.71428C0.385045 1.59821 0.429688 1.49553 0.518973 1.40625L1.18862 0.736606C1.2779 0.64732 1.38058 0.602677 1.49665 0.602677C1.61272 0.602677 1.7154 0.64732 1.80469 0.736606L8.04576 6.97768Z" fill="white"/>
</svg>
