<svg width="18" height="18" viewBox="0 0 18 18" fill="none" xmlns="http://www.w3.org/2000/svg">
<path d="M10.8871 11.1127C11.7711 10.2288 12.213 9.16741 12.213 7.92857C12.213 6.68973 11.7711 5.6317 10.8871 4.75446C10.0099 3.87053 8.95187 3.42857 7.71303 3.42857C6.47419 3.42857 5.41281 3.87053 4.52888 4.75446C3.65165 5.6317 3.21303 6.68973 3.21303 7.92857C3.21303 9.16741 3.65165 10.2288 4.52888 11.1127C5.41281 11.99 6.47419 12.4286 7.71303 12.4286C8.95187 12.4286 10.0099 11.99 10.8871 11.1127ZM17.3559 16.2857C17.3559 16.6339 17.2287 16.9353 16.9742 17.1897C16.7197 17.4442 16.4184 17.5714 16.0702 17.5714C15.7086 17.5714 15.4072 17.4442 15.1662 17.1897L11.7208 13.7545C10.5222 14.5848 9.18624 15 7.71303 15C6.75544 15 5.83803 14.8158 4.9608 14.4475C4.09026 14.0725 3.33691 13.5703 2.70075 12.9408C2.07129 12.3047 1.56906 11.5513 1.19406 10.6808C0.825753 9.80357 0.641602 8.88616 0.641602 7.92857C0.641602 6.97098 0.825753 6.05692 1.19406 5.18638C1.56906 4.30915 2.07129 3.5558 2.70075 2.92634C3.33691 2.29018 4.09026 1.78795 4.9608 1.41964C5.83803 1.04464 6.75544 0.857142 7.71303 0.857142C8.67062 0.857142 9.58468 1.04464 10.4552 1.41964C11.3325 1.78795 12.0858 2.29018 12.7153 2.92634C13.3514 3.5558 13.8537 4.30915 14.222 5.18638C14.597 6.05692 14.7845 6.97098 14.7845 7.92857C14.7845 9.40179 14.3693 10.7377 13.5389 11.9364L16.9842 15.3817C17.232 15.6295 17.3559 15.9308 17.3559 16.2857Z" fill="black"/>
</svg>
