<svg width="25" height="24" viewBox="0 0 25 24" fill="none" xmlns="http://www.w3.org/2000/svg">
<g filter="url(#filter0_d)">
<path d="M20.4916 16.6964C20.4916 16.8973 20.4544 17.1615 20.38 17.4888C20.3056 17.8088 20.2275 18.0618 20.1456 18.2478C19.9894 18.6198 19.5355 19.0141 18.784 19.4308C18.0846 19.8103 17.3927 20 16.7081 20C16.5073 20 16.3101 19.9888 16.1166 19.9665C15.9232 19.9368 15.7074 19.8884 15.4693 19.8214C15.2387 19.7545 15.0638 19.7024 14.9448 19.6652C14.8331 19.6205 14.6285 19.5424 14.3309 19.4308C14.0333 19.3192 13.851 19.2522 13.784 19.2299C13.0549 18.9695 12.4038 18.6607 11.8309 18.3036C10.886 17.7158 9.90383 16.9122 8.88449 15.8929C7.86514 14.8735 7.06157 13.8914 6.47377 12.9464C6.11663 12.3735 5.80785 11.7225 5.54743 10.9933C5.52511 10.9263 5.45815 10.744 5.34654 10.4464C5.23493 10.1488 5.15681 9.9442 5.11217 9.83259C5.07496 9.71354 5.02288 9.53869 4.95592 9.30804C4.88895 9.06994 4.84059 8.85417 4.81083 8.66071C4.7885 8.46726 4.77734 8.27009 4.77734 8.0692C4.77734 7.38467 4.96708 6.69271 5.34654 5.9933C5.76321 5.24181 6.15755 4.78795 6.52958 4.6317C6.71559 4.54985 6.96856 4.47173 7.2885 4.39732C7.61589 4.32292 7.88002 4.28571 8.08092 4.28571C8.18508 4.28571 8.26321 4.29687 8.31529 4.3192C8.44922 4.36384 8.64639 4.64658 8.90681 5.16741C8.98865 5.30878 9.10026 5.50967 9.24163 5.77009C9.383 6.03051 9.51321 6.2686 9.63225 6.48437C9.7513 6.69271 9.86663 6.88988 9.97824 7.07589C10.0006 7.10565 10.0638 7.19866 10.168 7.35491C10.2796 7.51116 10.3614 7.64509 10.4135 7.7567C10.4656 7.86086 10.4916 7.96503 10.4916 8.0692C10.4916 8.21801 10.3837 8.40402 10.168 8.62723C9.95964 8.85045 9.72898 9.05506 9.476 9.24107C9.23047 9.42708 8.99981 9.62426 8.78404 9.83259C8.57571 10.0409 8.47154 10.2121 8.47154 10.346C8.47154 10.4129 8.49014 10.4985 8.52734 10.6027C8.56455 10.6994 8.59431 10.7738 8.61663 10.8259C8.64639 10.878 8.69847 10.9673 8.77288 11.0937C8.85472 11.2202 8.89937 11.2909 8.90681 11.3058C9.47228 12.3251 10.1196 13.1994 10.8488 13.9286C11.5779 14.6577 12.4522 15.3051 13.4715 15.8705C13.4864 15.878 13.5571 15.9226 13.6836 16.0045C13.8101 16.0789 13.8994 16.131 13.9515 16.1607C14.0035 16.183 14.0779 16.2128 14.1747 16.25C14.2788 16.2872 14.3644 16.3058 14.4314 16.3058C14.5653 16.3058 14.7364 16.2016 14.9448 15.9933C15.1531 15.7775 15.3503 15.5469 15.5363 15.3013C15.7223 15.0484 15.9269 14.8177 16.1501 14.6094C16.3733 14.3936 16.5593 14.2857 16.7081 14.2857C16.8123 14.2857 16.9165 14.3118 17.0206 14.3638C17.1323 14.4159 17.2662 14.4978 17.4224 14.6094C17.5787 14.7135 17.6717 14.7768 17.7015 14.7991C17.8875 14.9107 18.0846 15.026 18.293 15.1451C18.5087 15.2641 18.7468 15.3943 19.0073 15.5357C19.2677 15.6771 19.4686 15.7887 19.6099 15.8705C20.1308 16.131 20.4135 16.3281 20.4581 16.4621C20.4805 16.5141 20.4916 16.5923 20.4916 16.6964Z" fill="black"/>
</g>
<defs>
<filter id="filter0_d" x="0.777344" y="0.285645" width="23.7143" height="23.7143" filterUnits="userSpaceOnUse" color-interpolation-filters="sRGB">
<feFlood flood-opacity="0" result="BackgroundImageFix"/>
<feColorMatrix in="SourceAlpha" type="matrix" values="0 0 0 0 0 0 0 0 0 0 0 0 0 0 0 0 0 0 127 0"/>
<feOffset/>
<feGaussianBlur stdDeviation="2"/>
<feColorMatrix type="matrix" values="0 0 0 0 1 0 0 0 0 0.8 0 0 0 0 0 0 0 0 0.25 0"/>
<feBlend mode="normal" in2="BackgroundImageFix" result="effect1_dropShadow"/>
<feBlend mode="normal" in="SourceGraphic" in2="effect1_dropShadow" result="shape"/>
</filter>
</defs>
</svg>
