<svg width="77" height="61" viewBox="0 0 77 61" fill="none" xmlns="http://www.w3.org/2000/svg">
<path d="M72.4375 0H19.0625C18.0514 0 17.0816 0.401673 16.3667 1.11666C15.6517 1.83164 15.25 2.80136 15.25 3.8125V15.25H34.3125V7.625H57.1875V45.75H72.4375C73.4486 45.75 74.4184 45.3483 75.1333 44.6333C75.8483 43.9184 76.25 42.9486 76.25 41.9375V3.8125C76.25 2.80136 75.8483 1.83164 75.1333 1.11666C74.4184 0.401673 73.4486 0 72.4375 0V0ZM27.6406 12.2715C27.6406 12.5559 27.5277 12.8286 27.3266 13.0297C27.1255 13.2308 26.8527 13.3438 26.5684 13.3438H22.9941C22.7098 13.3438 22.437 13.2308 22.2359 13.0297C22.0348 12.8286 21.9219 12.5559 21.9219 12.2715V8.69727C21.9219 8.41288 22.0348 8.14015 22.2359 7.93906C22.437 7.73797 22.7098 7.625 22.9941 7.625H26.5684C26.8527 7.625 27.1255 7.73797 27.3266 7.93906C27.5277 8.14015 27.6406 8.41288 27.6406 8.69727V12.2715ZM69.5781 37.0527C69.5781 37.3371 69.4652 37.6099 69.2641 37.8109C69.063 38.012 68.7902 38.125 68.5059 38.125H64.9316C64.6473 38.125 64.3745 38.012 64.1734 37.8109C63.9723 37.6099 63.8594 37.3371 63.8594 37.0527V33.4785C63.8594 33.1941 63.9723 32.9214 64.1734 32.7203C64.3745 32.5192 64.6473 32.4062 64.9316 32.4062H68.5059C68.7902 32.4062 69.063 32.5192 69.2641 32.7203C69.4652 32.9214 69.5781 33.1941 69.5781 33.4785V37.0527ZM69.5781 24.6621C69.5781 24.9465 69.4652 25.2192 69.2641 25.4203C69.063 25.6214 68.7902 25.7344 68.5059 25.7344H64.9316C64.6473 25.7344 64.3745 25.6214 64.1734 25.4203C63.9723 25.2192 63.8594 24.9465 63.8594 24.6621V21.0879C63.8594 20.8035 63.9723 20.5308 64.1734 20.3297C64.3745 20.1286 64.6473 20.0156 64.9316 20.0156H68.5059C68.7902 20.0156 69.063 20.1286 69.2641 20.3297C69.4652 20.5308 69.5781 20.8035 69.5781 21.0879V24.6621ZM69.5781 12.2715C69.5781 12.5559 69.4652 12.8286 69.2641 13.0297C69.063 13.2308 68.7902 13.3438 68.5059 13.3438H64.9316C64.6473 13.3438 64.3745 13.2308 64.1734 13.0297C63.9723 12.8286 63.8594 12.5559 63.8594 12.2715V8.69727C63.8594 8.41288 63.9723 8.14015 64.1734 7.93906C64.3745 7.73797 64.6473 7.625 64.9316 7.625H68.5059C68.7902 7.625 69.063 7.73797 69.2641 7.93906C69.4652 8.14015 69.5781 8.41288 69.5781 8.69727V12.2715ZM49.5625 19.0625H3.8125C2.80136 19.0625 1.83164 19.4642 1.11666 20.1792C0.401673 20.8941 0 21.8639 0 22.875L0 57.1875C0 58.1986 0.401673 59.1684 1.11666 59.8833C1.83164 60.5983 2.80136 61 3.8125 61H49.5625C50.5736 61 51.5434 60.5983 52.2583 59.8833C52.9733 59.1684 53.375 58.1986 53.375 57.1875V22.875C53.375 21.8639 52.9733 20.8941 52.2583 20.1792C51.5434 19.4642 50.5736 19.0625 49.5625 19.0625ZM11.4375 26.6875C12.1915 26.6875 12.9286 26.9111 13.5556 27.33C14.1826 27.7489 14.6712 28.3444 14.9598 29.041C15.2484 29.7377 15.3239 30.5042 15.1767 31.2438C15.0296 31.9833 14.6665 32.6627 14.1333 33.1958C13.6002 33.729 12.9208 34.0921 12.1813 34.2392C11.4417 34.3863 10.6752 34.3109 9.97852 34.0223C9.28188 33.7337 8.68645 33.2451 8.26752 32.6181C7.8486 31.9911 7.625 31.254 7.625 30.5C7.625 29.4889 8.02667 28.5191 8.74166 27.8042C9.45664 27.0892 10.4264 26.6875 11.4375 26.6875ZM45.75 53.375H7.625V49.5625L15.25 41.9375L19.0625 45.75L34.3125 30.5L45.75 41.9375V53.375Z" fill="black"/>
</svg>
