<svg width="16" height="17" viewBox="0 0 16 17" fill="none" xmlns="http://www.w3.org/2000/svg">
<path d="M9 5.03599V9.53599C9 9.62974 8.96987 9.70675 8.9096 9.76702C8.84933 9.82729 8.77232 9.85742 8.67857 9.85742H5.46429C5.37054 9.85742 5.29353 9.82729 5.23326 9.76702C5.17299 9.70675 5.14286 9.62974 5.14286 9.53599V8.89314C5.14286 8.79939 5.17299 8.72238 5.23326 8.66211C5.29353 8.60184 5.37054 8.57171 5.46429 8.57171H7.71429V5.03599C7.71429 4.94224 7.74442 4.86523 7.80469 4.80497C7.86496 4.7447 7.94196 4.71457 8.03571 4.71457H8.67857C8.77232 4.71457 8.84933 4.7447 8.9096 4.80497C8.96987 4.86523 9 4.94224 9 5.03599ZM12.4453 11.3139C12.9342 10.4769 13.1786 9.56278 13.1786 8.57171C13.1786 7.58064 12.9342 6.66657 12.4453 5.82952C11.9565 4.99247 11.2935 4.32952 10.4565 3.84068C9.61942 3.35184 8.70536 3.10742 7.71429 3.10742C6.72321 3.10742 5.80915 3.35184 4.9721 3.84068C4.13504 4.32952 3.4721 4.99247 2.98326 5.82952C2.49442 6.66657 2.25 7.58064 2.25 8.57171C2.25 9.56278 2.49442 10.4769 2.98326 11.3139C3.4721 12.151 4.13504 12.8139 4.9721 13.3028C5.80915 13.7916 6.72321 14.036 7.71429 14.036C8.70536 14.036 9.61942 13.7916 10.4565 13.3028C11.2935 12.8139 11.9565 12.151 12.4453 11.3139ZM14.394 4.70452C15.0837 5.88309 15.4286 7.17215 15.4286 8.57171C15.4286 9.97126 15.0837 11.2637 14.394 12.449C13.7042 13.6275 12.7667 14.5617 11.5815 15.2514C10.4029 15.9411 9.11384 16.286 7.71429 16.286C6.31473 16.286 5.02232 15.9411 3.83705 15.2514C2.65848 14.5617 1.72433 13.6275 1.0346 12.449C0.344866 11.2637 0 9.97126 0 8.57171C0 7.17215 0.344866 5.88309 1.0346 4.70452C1.72433 3.51925 2.65848 2.58175 3.83705 1.89202C5.02232 1.20229 6.31473 0.857422 7.71429 0.857422C9.11384 0.857422 10.4029 1.20229 11.5815 1.89202C12.7667 2.58175 13.7042 3.51925 14.394 4.70452Z" fill="black"/>
</svg>
