<svg width="14" height="8" viewBox="0 0 14 8" fill="none" xmlns="http://www.w3.org/2000/svg">
<path d="M13.2634 0.977399C13.3527 1.06668 13.3973 1.16936 13.3973 1.28543C13.3973 1.40151 13.3527 1.50418 13.2634 1.59347L7.02232 7.83454C6.93304 7.92383 6.83036 7.96847 6.71429 7.96847C6.59821 7.96847 6.49554 7.92383 6.40625 7.83454L0.165179 1.59347C0.0758928 1.50418 0.03125 1.40151 0.03125 1.28543C0.03125 1.16936 0.0758928 1.06668 0.165179 0.977399L0.834822 0.307756C0.924107 0.218471 1.02679 0.173828 1.14286 0.173828C1.25893 0.173828 1.36161 0.218471 1.45089 0.307756L6.71429 5.57115L11.9777 0.307756C12.067 0.218471 12.1696 0.173828 12.2857 0.173828C12.4018 0.173828 12.5045 0.218471 12.5938 0.307756L13.2634 0.977399Z" fill="#0EAAB4"/>
</svg>
