<svg width="19" height="19" viewBox="0 0 19 19" fill="none" xmlns="http://www.w3.org/2000/svg">
<path d="M18.8571 15.0354C18.8571 15.2765 18.8125 15.5934 18.7232 15.9863C18.6339 16.3702 18.5402 16.6738 18.442 16.897C18.2545 17.3434 17.7098 17.8167 16.808 18.3167C15.9688 18.772 15.1384 18.9997 14.317 18.9997C14.0759 18.9997 13.8393 18.9863 13.6071 18.9595C13.375 18.9238 13.1161 18.8658 12.8304 18.7854C12.5536 18.7051 12.3438 18.6426 12.2009 18.5979C12.067 18.5443 11.8214 18.4506 11.4643 18.3167C11.1071 18.1827 10.8884 18.1024 10.808 18.0756C9.93304 17.7631 9.15179 17.3926 8.46429 16.964C7.33036 16.2586 6.15179 15.2943 4.92857 14.0711C3.70536 12.8479 2.74107 11.6693 2.03571 10.5354C1.60714 9.84793 1.23661 9.06668 0.924107 8.19168C0.897321 8.11133 0.816964 7.89258 0.683036 7.53543C0.549107 7.17829 0.455357 6.93276 0.401786 6.79883C0.357143 6.65597 0.294643 6.44615 0.214286 6.16936C0.133929 5.88365 0.0758929 5.62472 0.0401786 5.39258C0.0133929 5.16043 0 4.92383 0 4.68275C0 3.86133 0.227679 3.03097 0.683036 2.19168C1.18304 1.2899 1.65625 0.745257 2.10268 0.557757C2.32589 0.459543 2.62946 0.365793 3.01339 0.276507C3.40625 0.187221 3.72321 0.142578 3.96429 0.142578C4.08929 0.142578 4.18304 0.155971 4.24554 0.182757C4.40625 0.236329 4.64286 0.575614 4.95536 1.20061C5.05357 1.37025 5.1875 1.61133 5.35714 1.92383C5.52679 2.23633 5.68304 2.52204 5.82589 2.78097C5.96875 3.03097 6.10714 3.26758 6.24107 3.49079C6.26786 3.52651 6.34375 3.63811 6.46875 3.82561C6.60268 4.01311 6.70089 4.17383 6.76339 4.30775C6.82589 4.43275 6.85714 4.55775 6.85714 4.68275C6.85714 4.86133 6.72768 5.08454 6.46875 5.3524C6.21875 5.62025 5.94196 5.86579 5.63839 6.089C5.34375 6.31222 5.06696 6.54883 4.80804 6.79883C4.55804 7.04883 4.43304 7.25418 4.43304 7.4149C4.43304 7.49526 4.45536 7.59793 4.5 7.72293C4.54464 7.83901 4.58036 7.92829 4.60714 7.99079C4.64286 8.05329 4.70536 8.16043 4.79464 8.31222C4.89286 8.46401 4.94643 8.54883 4.95536 8.56668C5.63393 9.7899 6.41071 10.839 7.28571 11.714C8.16071 12.589 9.20982 13.3658 10.433 14.0443C10.4509 14.0533 10.5357 14.1068 10.6875 14.2051C10.8393 14.2943 10.9464 14.3568 11.0089 14.3926C11.0714 14.4193 11.1607 14.4551 11.2768 14.4997C11.4018 14.5443 11.5045 14.5667 11.5848 14.5667C11.7455 14.5667 11.9509 14.4417 12.2009 14.1917C12.4509 13.9327 12.6875 13.6559 12.9107 13.3613C13.1339 13.0577 13.3795 12.7809 13.6473 12.5309C13.9152 12.272 14.1384 12.1426 14.317 12.1426C14.442 12.1426 14.567 12.1738 14.692 12.2363C14.8259 12.2988 14.9866 12.397 15.1741 12.5309C15.3616 12.6559 15.4732 12.7318 15.5089 12.7586C15.7321 12.8926 15.9688 13.0309 16.2188 13.1738C16.4777 13.3167 16.7634 13.4729 17.0759 13.6426C17.3884 13.8122 17.6295 13.9461 17.7991 14.0443C18.4241 14.3568 18.7634 14.5934 18.817 14.7542C18.8438 14.8167 18.8571 14.9104 18.8571 15.0354Z" fill="#0EAAB4"/>
</svg>
