<svg width="24" height="24" viewBox="0 0 24 24" fill="none" xmlns="http://www.w3.org/2000/svg">
<path d="M0.366585 20.7169L20.624 0.368235C21.0544 -0.0640272 21.6918 -0.124437 22.048 0.233298L23.66 1.85256C24.0161 2.21029 23.956 2.85064 23.5256 3.2829L3.26818 23.6316C2.83786 24.0638 2.20038 24.1242 1.84425 23.7665L0.232252 22.1473C-0.123879 21.7895 -0.06374 21.1492 0.366585 20.7169Z" fill="white"/>
<path d="M20.7318 23.6318L0.474368 3.28309C0.0440428 2.85083 -0.016096 2.21048 0.340035 1.85275L1.95203 0.233489C2.30816 -0.124246 2.94564 -0.0638363 3.37597 0.368426L23.6334 20.7171C24.0637 21.1494 24.1239 21.7897 23.7677 22.1474L22.1558 23.7667C21.7996 24.1244 21.1621 24.064 20.7318 23.6318Z" fill="white"/>
</svg>
