<svg width="24" height="24" viewBox="0 0 24 24" fill="none" xmlns="http://www.w3.org/2000/svg">
<path d="M17.458 5.42065L4.42065 18.4579C4.11555 18.763 4.34308 19.4852 4.92888 20.071C5.51469 20.6568 6.23687 20.8844 6.54197 20.5792L19.5793 7.54197C19.8844 7.23686 19.6569 6.51468 19.0711 5.92888C18.4853 5.34308 17.7631 5.11554 17.458 5.42065Z" fill="white"/>
<path d="M19.9328 18.1045L6.89549 5.06713C6.59039 4.76202 5.86821 4.98957 5.2824 5.57537C4.6966 6.16117 4.46906 6.88334 4.77417 7.18845L17.8115 20.2258C18.1166 20.5309 18.8387 20.3033 19.4245 19.7175C20.0104 19.1317 20.2379 18.4096 19.9328 18.1045Z" fill="white"/>
</svg>
