<svg width="20" height="19" viewBox="0 0 20 19" fill="none" xmlns="http://www.w3.org/2000/svg">
<path d="M19.2188 8.0625H0.78125C0.349766 8.0625 0 8.73405 0 9.5625C0 10.3909 0.349766 11.0625 0.78125 11.0625H19.2188C19.6502 11.0625 20 10.3909 20 9.5625C20 8.73405 19.6502 8.0625 19.2188 8.0625Z" fill="white"/>
<path d="M19.2188 0.5625H0.78125C0.349766 0.5625 0 1.23405 0 2.0625C0 2.89095 0.349766 3.5625 0.78125 3.5625H19.2188C19.6502 3.5625 20 2.89095 20 2.0625C20 1.23405 19.6502 0.5625 19.2188 0.5625Z" fill="white"/>
<path d="M19.2188 15.5625H0.78125C0.349766 15.5625 0 16.2341 0 17.0625C0 17.8909 0.349766 18.5625 0.78125 18.5625H19.2188C19.6502 18.5625 20 17.8909 20 17.0625C20 16.2341 19.6502 15.5625 19.2188 15.5625Z" fill="white"/>
</svg>
