<svg width="34" height="34" viewBox="0 0 34 34" fill="none" xmlns="http://www.w3.org/2000/svg">
<path d="M18.1895 16.31V27.9618C18.1895 29.3546 17.6805 30.56 16.6627 31.5779C15.6448 32.5957 14.4395 33.1046 13.0466 33.1046C11.6537 33.1046 10.4484 32.5957 9.43052 31.5779C8.41267 30.56 7.90374 29.3546 7.90374 27.9618C7.90374 27.6136 8.03097 27.3122 8.28544 27.0578C8.5399 26.8033 8.84124 26.6761 9.18945 26.6761C9.53767 26.6761 9.83901 26.8033 10.0935 27.0578C10.3479 27.3122 10.4752 27.6136 10.4752 27.9618C10.4752 28.6314 10.7363 29.2274 11.2586 29.7497C11.781 30.2721 12.377 30.5332 13.0466 30.5332C13.7162 30.5332 14.3122 30.2721 14.8345 29.7497C15.3569 29.2274 15.618 28.6314 15.618 27.9618V16.31C16.06 16.1627 16.4886 16.089 16.9037 16.089C17.3189 16.089 17.7475 16.1627 18.1895 16.31ZM33.618 16.8524C33.618 17.0265 33.5511 17.1805 33.4171 17.3145C33.2966 17.435 33.1493 17.4953 32.9752 17.4953C32.8278 17.4953 32.6738 17.4283 32.5131 17.2944C31.8569 16.6783 31.2341 16.2163 30.6448 15.9082C30.0555 15.6002 29.3725 15.4462 28.5957 15.4462C27.685 15.4462 26.8278 15.6939 26.0243 16.1895C25.2207 16.685 24.531 17.3346 23.9551 18.1381C23.8613 18.2721 23.7408 18.4596 23.5935 18.7006C23.4595 18.9417 23.3658 19.1024 23.3122 19.1828C23.1649 19.4104 22.9774 19.5243 22.7497 19.5243C22.5087 19.5243 22.3145 19.4104 22.1671 19.1828C22.1136 19.1024 22.0131 18.9417 21.8658 18.7006C21.7319 18.4596 21.618 18.2721 21.5243 18.1381C20.9484 17.3346 20.2587 16.685 19.4551 16.1895C18.6649 15.6939 17.8145 15.4462 16.9037 15.4462C15.993 15.4462 15.1359 15.6939 14.3323 16.1895C13.5421 16.685 12.8591 17.3346 12.2832 18.1381C12.1895 18.2721 12.0689 18.4596 11.9216 18.7006C11.7877 18.9417 11.6939 19.1024 11.6403 19.1828C11.493 19.4104 11.2988 19.5243 11.0578 19.5243C10.8301 19.5243 10.6426 19.4104 10.4953 19.1828C10.4417 19.1024 10.3412 18.9417 10.1939 18.7006C10.06 18.4596 9.94615 18.2721 9.8524 18.1381C9.27651 17.3346 8.58677 16.685 7.7832 16.1895C6.97963 15.6939 6.12249 15.4462 5.21177 15.4462C4.43499 15.4462 3.75195 15.6002 3.16267 15.9082C2.57338 16.2163 1.95061 16.6783 1.29436 17.2944C1.13365 17.4283 0.979632 17.4953 0.83231 17.4953C0.658203 17.4953 0.504185 17.435 0.370257 17.3145C0.249721 17.1805 0.189453 17.0265 0.189453 16.8524C0.189453 16.7854 0.19615 16.7386 0.209542 16.7118C0.812221 14.2609 1.96401 12.1247 3.6649 10.3033C5.37919 8.46849 7.37472 7.09572 9.65151 6.185C11.9417 5.27429 14.3591 4.81893 16.9037 4.81893C18.7787 4.81893 20.6136 5.08679 22.4082 5.6225C24.2162 6.15822 25.8703 6.92161 27.3703 7.91268C28.8703 8.89036 30.1694 10.1426 31.2676 11.6694C32.3792 13.1828 33.156 14.8636 33.5979 16.7118C33.6113 16.7386 33.618 16.7854 33.618 16.8524ZM18.1895 2.2475V4.21625C17.627 4.18947 17.1984 4.17608 16.9037 4.17608C16.6091 4.17608 16.1805 4.18947 15.618 4.21625V2.2475C15.618 1.89929 15.7453 1.59795 15.9997 1.34348C16.2542 1.08902 16.5555 0.961789 16.9037 0.961789C17.252 0.961789 17.5533 1.08902 17.8078 1.34348C18.0622 1.59795 18.1895 1.89929 18.1895 2.2475Z" fill="white"/>
</svg>
