<svg width="24" height="25" viewBox="0 0 24 25" fill="none" xmlns="http://www.w3.org/2000/svg">
<path d="M18.3093 13.3525L11.4521 20.2096C11.3629 20.29 11.2602 20.3301 11.1441 20.3301C11.028 20.3301 10.9254 20.29 10.8361 20.2096L6.97893 16.3525C6.89858 16.2632 6.8584 16.1605 6.8584 16.0444C6.8584 15.9284 6.89858 15.8301 6.97893 15.7498L7.59501 15.1337C7.67536 15.0534 7.77358 15.0132 7.88965 15.0132C8.00572 15.0132 8.1084 15.0534 8.19768 15.1337L11.1441 18.0801L17.0905 12.1337C17.1798 12.0534 17.2825 12.0132 17.3986 12.0132C17.5146 12.0132 17.6129 12.0534 17.6932 12.1337L18.3093 12.7498C18.3896 12.8301 18.4298 12.9284 18.4298 13.0444C18.4298 13.1605 18.3896 13.2632 18.3093 13.3525ZM2.57268 22.7275H21.4298V9.01318H2.57268V22.7275ZM7.71554 6.44175V2.58461C7.71554 2.45961 7.67536 2.35693 7.59501 2.27658C7.51465 2.19622 7.41197 2.15604 7.28697 2.15604H6.42983C6.30483 2.15604 6.20215 2.19622 6.12179 2.27658C6.04143 2.35693 6.00126 2.45961 6.00126 2.58461V6.44175C6.00126 6.56675 6.04143 6.66943 6.12179 6.74979C6.20215 6.83015 6.30483 6.87033 6.42983 6.87033H7.28697C7.41197 6.87033 7.51465 6.83015 7.59501 6.74979C7.67536 6.66943 7.71554 6.56675 7.71554 6.44175ZM18.0013 6.44175V2.58461C18.0013 2.45961 17.9611 2.35693 17.8807 2.27658C17.8004 2.19622 17.6977 2.15604 17.5727 2.15604H16.7155C16.5905 2.15604 16.4879 2.19622 16.4075 2.27658C16.3271 2.35693 16.287 2.45961 16.287 2.58461V6.44175C16.287 6.56675 16.3271 6.66943 16.4075 6.74979C16.4879 6.83015 16.5905 6.87033 16.7155 6.87033H17.5727C17.6977 6.87033 17.8004 6.83015 17.8807 6.74979C17.9611 6.66943 18.0013 6.56675 18.0013 6.44175ZM23.1441 5.58461V22.7275C23.1441 23.1918 22.9745 23.5935 22.6352 23.9328C22.2959 24.2721 21.8941 24.4418 21.4298 24.4418H2.57268C2.1084 24.4418 1.70661 24.2721 1.36733 23.9328C1.02804 23.5935 0.858398 23.1918 0.858398 22.7275V5.58461C0.858398 5.12033 1.02804 4.71854 1.36733 4.37925C1.70661 4.03997 2.1084 3.87033 2.57268 3.87033H4.28697V2.58461C4.28697 1.99533 4.49679 1.49086 4.91643 1.07122C5.33608 0.651575 5.84054 0.441753 6.42983 0.441753H7.28697C7.87626 0.441753 8.38072 0.651575 8.80036 1.07122C9.22001 1.49086 9.42983 1.99533 9.42983 2.58461V3.87033H14.5727V2.58461C14.5727 1.99533 14.7825 1.49086 15.2021 1.07122C15.6218 0.651575 16.1263 0.441753 16.7155 0.441753H17.5727C18.162 0.441753 18.6664 0.651575 19.0861 1.07122C19.5057 1.49086 19.7155 1.99533 19.7155 2.58461V3.87033H21.4298C21.8941 3.87033 22.2959 4.03997 22.6352 4.37925C22.9745 4.71854 23.1441 5.12033 23.1441 5.58461Z" fill="white"/>
</svg>
