<svg width="17" height="16" viewBox="0 0 17 16" fill="none" xmlns="http://www.w3.org/2000/svg">
<path d="M8.05748 9.28092C8.12444 9.34788 8.15792 9.42489 8.15792 9.51195C8.15792 9.599 8.12444 9.67601 8.05748 9.74297L4.72266 13.0778L6.16909 14.5242C6.29632 14.6515 6.35993 14.8021 6.35993 14.9762C6.35993 15.1503 6.29632 15.301 6.16909 15.4282C6.04185 15.5555 5.89118 15.6191 5.71708 15.6191H1.21708C1.04297 15.6191 0.892299 15.5555 0.765067 15.4282C0.637835 15.301 0.574219 15.1503 0.574219 14.9762V10.4762C0.574219 10.3021 0.637835 10.1515 0.765067 10.0242C0.892299 9.89699 1.04297 9.83337 1.21708 9.83337C1.39118 9.83337 1.54185 9.89699 1.66908 10.0242L3.11551 11.4707L6.45034 8.13583C6.5173 8.06886 6.59431 8.03538 6.68136 8.03538C6.76842 8.03538 6.84542 8.06886 6.91239 8.13583L8.05748 9.28092ZM16.0028 0.833373V5.33337C16.0028 5.50748 15.9392 5.65815 15.8119 5.78538C15.6847 5.91261 15.534 5.97623 15.3599 5.97623C15.1858 5.97623 15.0352 5.91261 14.9079 5.78538L13.4615 4.33895L10.1267 7.67378C10.0597 7.74074 9.9827 7.77422 9.89565 7.77422C9.80859 7.77422 9.73159 7.74074 9.66462 7.67378L8.51953 6.52869C8.45257 6.46172 8.41909 6.38471 8.41909 6.29766C8.41909 6.21061 8.45257 6.1336 8.51953 6.06663L11.8544 2.73181L10.4079 1.28538C10.2807 1.15815 10.2171 1.00748 10.2171 0.833373C10.2171 0.659266 10.2807 0.508597 10.4079 0.381365C10.5352 0.254132 10.6858 0.190516 10.8599 0.190516H15.3599C15.534 0.190516 15.6847 0.254132 15.8119 0.381365C15.9392 0.508597 16.0028 0.659266 16.0028 0.833373Z" fill="white"/>
</svg>
