<svg width="21" height="15" viewBox="0 0 21 15" fill="none" xmlns="http://www.w3.org/2000/svg">
<path d="M19.6708 2.2567C19.8999 2.48586 20.0145 2.76414 20.0145 3.09152C20.0145 3.4189 19.8999 3.69717 19.6708 3.92634L10.7824 12.8147L9.11272 14.4844C8.88356 14.7135 8.60528 14.8281 8.2779 14.8281C7.95052 14.8281 7.67225 14.7135 7.44308 14.4844L5.77344 12.8147L1.32924 8.37054C1.10007 8.14137 0.985491 7.86309 0.985491 7.53571C0.985491 7.20833 1.10007 6.93006 1.32924 6.70089L2.99888 5.03125C3.22805 4.80208 3.50632 4.6875 3.83371 4.6875C4.16109 4.6875 4.43936 4.80208 4.66853 5.03125L8.2779 8.6529L16.3315 0.587053C16.5606 0.357886 16.8389 0.243303 17.1663 0.243303C17.4937 0.243303 17.7719 0.357886 18.0011 0.587053L19.6708 2.2567Z" fill="white"/>
</svg>
