<svg width="11" height="17" viewBox="0 0 11 17" fill="none" xmlns="http://www.w3.org/2000/svg">
<path d="M6.96094 7.81808C7.46317 7.31585 7.71429 6.70982 7.71429 6C7.71429 5.29018 7.46317 4.68415 6.96094 4.18192C6.45871 3.67969 5.85268 3.42857 5.14286 3.42857C4.43304 3.42857 3.82701 3.67969 3.32478 4.18192C2.82254 4.68415 2.57143 5.29018 2.57143 6C2.57143 6.70982 2.82254 7.31585 3.32478 7.81808C3.82701 8.32031 4.43304 8.57143 5.14286 8.57143C5.85268 8.57143 6.45871 8.32031 6.96094 7.81808ZM10.2857 6C10.2857 6.72991 10.1752 7.32924 9.95424 7.79799L6.29799 15.5725C6.19085 15.7935 6.03013 15.9676 5.81585 16.0949C5.60826 16.2221 5.38393 16.2857 5.14286 16.2857C4.90179 16.2857 4.67411 16.2221 4.45982 16.0949C4.25223 15.9676 4.09821 15.7935 3.99777 15.5725L0.331473 7.79799C0.110491 7.32924 0 6.72991 0 6C0 4.58036 0.502232 3.3683 1.5067 2.36384C2.51116 1.35937 3.72321 0.857142 5.14286 0.857142C6.5625 0.857142 7.77455 1.35937 8.77902 2.36384C9.78348 3.3683 10.2857 4.58036 10.2857 6Z" fill="#0EAAB4"/>
</svg>
