<svg width="12" height="18" viewBox="0 0 12 18" fill="none" xmlns="http://www.w3.org/2000/svg">
<path d="M7.94727 8.02009C8.5053 7.46205 8.78432 6.78869 8.78432 6C8.78432 5.21131 8.5053 4.53795 7.94727 3.97991C7.38923 3.42187 6.71587 3.14286 5.92718 3.14286C5.13849 3.14286 4.46512 3.42187 3.90709 3.97991C3.34905 4.53795 3.07003 5.21131 3.07003 6C3.07003 6.78869 3.34905 7.46205 3.90709 8.02009C4.46512 8.57812 5.13849 8.85714 5.92718 8.85714C6.71587 8.85714 7.38923 8.57812 7.94727 8.02009ZM11.6415 6C11.6415 6.81101 11.5187 7.47693 11.2732 7.99777L7.21066 16.6362C7.09161 16.8817 6.91304 17.0751 6.67494 17.2165C6.44429 17.3579 6.19503 17.4286 5.92718 17.4286C5.65932 17.4286 5.40634 17.3579 5.16825 17.2165C4.93759 17.0751 4.76646 16.8817 4.65486 16.6362L0.581194 7.99777C0.335658 7.47693 0.212891 6.81101 0.212891 6C0.212891 4.42262 0.770926 3.07589 1.887 1.95982C3.00307 0.843749 4.3498 0.285713 5.92718 0.285713C7.50456 0.285713 8.85128 0.843749 9.96736 1.95982C11.0834 3.07589 11.6415 4.42262 11.6415 6Z" fill="black"/>
</svg>
