<svg width="21" height="37" viewBox="0 0 21 37" fill="none" xmlns="http://www.w3.org/2000/svg">
<path d="M20.4554 17.6071C20.6935 17.8452 20.8125 18.119 20.8125 18.4286C20.8125 18.7381 20.6935 19.0119 20.4554 19.25L3.8125 35.8929C3.5744 36.131 3.3006 36.25 2.99107 36.25C2.68155 36.25 2.40774 36.131 2.16964 35.8929L0.383929 34.1071C0.145833 33.869 0.0267857 33.5952 0.0267857 33.2857C0.0267857 32.9762 0.145833 32.7024 0.383929 32.4643L14.4196 18.4286L0.383929 4.39286C0.145833 4.15476 0.0267857 3.88095 0.0267857 3.57143C0.0267857 3.2619 0.145833 2.98809 0.383929 2.75L2.16964 0.964283C2.40774 0.726187 2.68155 0.60714 2.99107 0.60714C3.3006 0.60714 3.5744 0.726187 3.8125 0.964283L20.4554 17.6071Z" fill="black"/>
</svg>
